<svg id="Layer_1" data-name="Layer 1" xmlns="http://www.w3.org/2000/svg" viewBox="0 0 64 40"><defs><style>.cls-1{fill:#4a6241;}.cls-2{fill:#3a4332;}.cls-3{fill:#6e6c42;}.cls-4{fill:#d9cba8;}</style></defs><title>leaf2</title><path class="cls-1" d="M39.92,39.58h-.5l0,0c.37-.42,6-4.36,6.46-4.67a4.53,4.53,0,0,1-.07-1,5.07,5.07,0,0,1,.27-1.46c-1.37-.49-.65-3.19.84-3.47s.91,3.56-.46,3.54a4.39,4.39,0,0,0-.25,2.17c.54-.35,1.31-.83,2.06-1.26-.32-.71,3.15-6.47,3.54-7.14-.56-.42-.55-1.67.51-2.58a2.19,2.19,0,0,1,.28-.21,1.51,1.51,0,0,1,.57-.22.93.93,0,0,1,.84.38c.71,1-.77,2.91-1.49,2.84a.63.63,0,0,1-.36,0C51.25,28,50,30.4,49.86,30.66c.16-.13,1.52-1.24,1.73-1.39.21-1.09,1.68-1.85,2.13-1.4,1.17.65-1.51,3-2.08,1.83l-1.11.88A3.05,3.05,0,0,0,48.92,33l2.45-1.32c.36-.19.72-.38,1.09-.56a6.84,6.84,0,0,0,1.24-.55,13.35,13.35,0,0,1,1.51-2.24,3.54,3.54,0,0,1-.07-.64,10,10,0,0,1,.38-3.15c-.34,0-.55-.46-.62-.79a1.36,1.36,0,0,1,0-.56c.06-.53.36-1.34.91-1.38,1.36-.09,1,2.38.12,2.72a10.54,10.54,0,0,0-.25,3.25,14.47,14.47,0,0,0,1.2-1.35c.62-.74.52-.52,3.34-3.48-.88-1,1.57-3.05,2-1.78.28.77-.82,2-1.4,1.93a.93.93,0,0,1-.33,0c-.5.52-3,3.15-3.49,3.72a15.62,15.62,0,0,0,2.93-1.42c-.25-1.14,1.67-2.37,2.06-1.26.28.8-.34,1.46-1.1,1.72a.76.76,0,0,1-.82-.16,13.43,13.43,0,0,1-2.31,1.16c-.25.11-.47.2-.74.29a3.14,3.14,0,0,0-1.26,1.13,16.25,16.25,0,0,0-1.37,2,52.44,52.44,0,0,1,6.45-2c0-1.41,3.24-1.53,2,.2a1.34,1.34,0,0,1-.55.39c-.43.15-1.12.12-1.34-.28l-.32.06h0a31.2,31.2,0,0,0-3.48,1,3.33,3.33,0,0,0,2.34.36,1.23,1.23,0,0,1,1.3-.92c1.12.05,1.15,1,.51,1.5-.47.35-1.72.58-1.82-.26a3.41,3.41,0,0,1-2.25-.31,2.39,2.39,0,0,1-.46-.2l0,0a28.74,28.74,0,0,0-6.32,2.92,34.08,34.08,0,0,0,6.05,1,7.39,7.39,0,0,1,1.7-1.75,1,1,0,0,1,.28-.8c.83-1,2.28.21.51,1.11a.77.77,0,0,1-.29.09l-.24,0a6.3,6.3,0,0,0-1.37,1.37c1,0,.85,0,2.51-.13.49-1.33,3.48-1.2,2.75.23-.45.87-2.32,1.53-2.76.27,0,0-1.11.08-1.92.1-.53,0-1,0-1.56,0a11.62,11.62,0,0,1-1.67-.22,5.82,5.82,0,0,0,1.36,2,1.36,1.36,0,0,1,2.12.51,1,1,0,0,1-.63,1.28,1.19,1.19,0,0,1-1.39-.24,1.92,1.92,0,0,1-.27-.32.83.83,0,0,1-.05-1,7.31,7.31,0,0,1-1.68-2.34,7.73,7.73,0,0,1-1.77-.37A18.94,18.94,0,0,1,50,33c-1.35.78-2.68,1.49-4.64,2.86a5.38,5.38,0,0,0,.55.07,33,33,0,0,0,4.44-.35c.1-1.42,2.53-1.85,2.91-.76a1,1,0,0,1-.13.78,1.38,1.38,0,0,1-.62.58,1.89,1.89,0,0,1-1.21.22c-.62,0-.78-.24-.89-.45a17.09,17.09,0,0,1-5.51.21c-3.36,2.34-4.36,2.9-5,3.44m19-8.32h0C59,31.21,59,31.19,58.93,31.26Z"/><path class="cls-2" d="M1.38,13.14a44.84,44.84,0,0,0,10.29,6.95c1,3.22,1.17,4.14,1.46,4.84a37.79,37.79,0,0,0-9.27-5.17c-.5-.21-1-.37-1.52-.54l-.84-.29-.13,0v1.65c2.74,2.26,9.38,6,12.42,6.38l.11,0c.36,1.16,1.54,4,1.79,4.59-5.1-3.81-4-2.37-8-4.49-.77-.4-1.52-.79-2.3-1.16-.35-.17-.68-.39-1-.55a1.88,1.88,0,0,0-.58-.19h0a.55.55,0,0,0-.62.46.75.75,0,0,0,.34.62c1.42,1.18.34.89,3.67,2.82l0,0a44.22,44.22,0,0,0,4.15,2.45l1.3.75c.33.17.65.38,1,.53s.86.27,1.28.45a4.57,4.57,0,0,0,1.55.56.17.17,0,0,0,.08,0l.28.08c.55,1.18.26.84.89,2.07-1.4-1.12-6.43-3.6-8.54-4.74l0,0,0,0a14.76,14.76,0,0,0-1.46-.85.84.84,0,0,0-.94,0,.55.55,0,0,0-.2.55,1.23,1.23,0,0,0,.17.41,3.93,3.93,0,0,0,.51.56q.22.23.45.42a10.56,10.56,0,0,0,1.31.82c.47.27.85.66,1.3,1l.62.39c.24.14.47.3.71.45s.56.32.86.46l.69.3a13.14,13.14,0,0,0,1.6.8h0l.05,0a6.46,6.46,0,0,0,2.61,1.08,8.52,8.52,0,0,0,1.18.25,12.34,12.34,0,0,0,.74,1.77h1.07a.73.73,0,0,0-.16-.35,6,6,0,0,1-.57-1.31h0c2.46-2.64,5.55-10.64,4.05-10.83-.8-.1-.92,1.42-2.55,4.93-1,2.1-1.85,3.2-2.14,4.46-.33-.65-.71-1.39-.93-2,.9-.7,1.49-9.07,1.46-10.24v0c0-.9-.44-5.07-1.33-5.18-.48-.06-.63.42-.71.9-.16,1.1-.68,9.89-.51,12.13-.09-.2-1.68-4.26-1.75-4.5h0s0,0,0,0a.15.15,0,0,0,0-.07s0,0,0,0a.66.66,0,0,1,0-.09.64.64,0,0,1,0-.07h0a13.71,13.71,0,0,0,.89-2.16c.17-.47.45-5,.47-5.59.09-2.26.57-3,.08-5.54-.14-.63-.28-1.25-.89-1s-.75,3.87-.9,5.13c-.48,3.91-.6,4.61-.7,6.15-.05-.07-1.24-3.66-1.27-3.76,1-1,2.78-12.09,1.46-12.25-.57-.07-.73,1-.82,1.56s-.82,4.5-.82,4.5c-.35,1.37-.62,2.75-.64,2.84-.89-5.1,1.15-7.47-3.15-15.85C8.61.94,8.48.56,8,.75,7.14,1,7.28,5.16,7.34,6a33.62,33.62,0,0,0,.87,4.52c.53,2.2.72,1.65,1.47,3.59a10.54,10.54,0,0,0,.6,1.11c.15.3.23.81.53.93l0,0c0,.21.23,1.38.23,1.38a17.87,17.87,0,0,0-5.85-4.39c-.69-.4-2.55-1.57-3.85-2.15Z"/><path class="cls-2" d="M44.11,39.58c.4-.29.58-.56.44-.79-.35-.58-1.38.05-4.3.79ZM42.37,13.1a2,2,0,0,0-.25.8,38.45,38.45,0,0,0,.67,12.49c-1.73,2.49-2.27,3.14-2.61,3.73a34,34,0,0,0-1.51-9.43c-.13-.47-.3-.93-.46-1.38-.08-.25-.17-.51-.26-.75l-.12-.35a2.08,2.08,0,0,0-.15-.4l-.08-.1a.43.43,0,0,0-.41-.1c-.35.1-.36.5-.37.81v0h0c-.36,2.59.77,10.61,2.35,13.23,0,0,0,.06,0,.1-.62.91-2,3.33-2.25,3.83-.15-5.73-.57-4.16-1.29-8.16-.15-.76-.29-1.52-.46-2.27-.08-.34-.11-.7-.18-1a1.67,1.67,0,0,0-.19-.52l0,0a.49.49,0,0,0-.67-.18.67.67,0,0,0-.25.59c0,1.66-.44.73,0,4.16a.06.06,0,0,1,0,0,39.94,39.94,0,0,0,.58,4.29c.07.45.14.9.19,1.34s.09.67.17,1,.29.76.39,1.15a4.11,4.11,0,0,0,.47,1.41.16.16,0,0,0,0,.06s.09.22.1.24c-.53,1-.45.65-1,1.78,0-1.61-1-6.55-1.41-8.68,0,0,0,0,0,0s0,0,0,0a13.33,13.33,0,0,0-.21-1.51c-.06-.28-.17-.61-.5-.68a.5.5,0,0,0-.5.16,1.07,1.07,0,0,0-.2.35,3.54,3.54,0,0,0-.11.67c0,.19,0,.38,0,.56a9.56,9.56,0,0,0,.15,1.38c.07.48,0,1,0,1.46,0,.22.05.43.07.66s0,.5.08.75.09.58.15.87.12.44.17.65a11.6,11.6,0,0,0,.33,1.58s0,0,0,0a.18.18,0,0,1,0,.05,4,4,0,0,0,.46,1.86h2.43c.12-.23.23-.45.35-.64,1,.24,7.24-4,8.05-4.67l0,0c.64-.49,3.34-3.14,2.92-3.83-.23-.37-.65-.21-1,0-.87.5-7.37,5-8.86,6.4.09-.18,2.07-3.56,2.2-3.74h0s0,0,0,0a.14.14,0,0,0,0,0s0,0,0,0l.05-.07,0,0h0a12.44,12.44,0,0,0,2-.57c.43-.14,3.81-2.49,4.21-2.79,1.65-1.2,2.42-1.26,4-3,.37-.45.73-.9.24-1.21s-3.15,1.63-4.13,2.22c-3,1.84-3.59,2.15-4.74,2.93,0-.07,1.9-2.92,1.95-3,1.21.16,10.09-4.78,9.47-5.8-.27-.44-1.11,0-1.56.29L47.36,23.9C46.2,24.41,45.08,25,45,25c3.11-3.47,5.92-3.34,9.45-11.06.17-.42.36-.71-.05-1-.65-.43-3.5,2-4.08,2.5a30.19,30.19,0,0,0-2.71,3.14c-1.26,1.6-.76,1.43-1.72,3a9.57,9.57,0,0,0-.45,1c-.13.27-.44.61-.36.89,0,0,0,0,0,0-.14.14-.85.93-.85.93A16.09,16.09,0,0,0,44.08,18c-.13-.92-.46-4-.95-4.8A.45.45,0,0,0,42.37,13.1Z"/><path class="cls-3" d="M27.93,5.26c0-.17,0-.28-.11-.4h0c-.89-.83-3.62,5.83-3.37,9.66.27,4,1.49,8.11,5,10.07a16,16,0,0,1,.22,3.19.26.26,0,0,0,0,.1c-.07-.11-.13-.22-.2-.32-1.11-1.71-2.78-2.26-6.7-8.25-.18-.26-.34-.55-.63-.36-.1.06-.17.25-.21.36-1.07,5,4.53,9.77,7.66,9.68l-.47,3.61c-1.06-2.27-4.41-3-7.42-6.75-.14-.17-.89-1.23-.92-1.27a.38.38,0,0,0-.49-.19c-.39.1-.86,1.84-.08,3.23,1.42,2.55,7.41,6.44,8.67,6a26.67,26.67,0,0,1-1,3.13c-.7-2.3-3.51-4.14-5.91-6.4-.53-.54-1.44-1.64-1.44-1.64-.28-.27-.86,0-1,1a4,4,0,0,0,.66,2.57,4.32,4.32,0,0,0,.55.84c1.72,2.12,5.21,4.87,6.79,4.54-.3.84-.53,1.43-.76,2h.73a10.09,10.09,0,0,0,.6-1.6c3.62,3.1,10.58-4.85,8.84-4.8a.47.47,0,0,0-.33.09,10.76,10.76,0,0,1-4.12,1.65,9.78,9.78,0,0,0-3.81,1.77l-.09.06c.17-.43.73-2,.91-2.74l.15-.22a2.2,2.2,0,0,0,1.6.2,7,7,0,0,0,1.85-.58c3-1.78,4.28-6.42,3.44-6.58-.29-.06-.63.38-.85.6-2.3,2.45-3.39,2.6-5,3.85a5.13,5.13,0,0,0-.63.64l.13-.63a15.55,15.55,0,0,0,.25-2c3.93-1.76,4.12-5.88,5.35-8.89a4.1,4.1,0,0,0,.22-.55.28.28,0,0,0-.21-.25c-.16-.05-.3.08-.44.19-.44.35-.91.7-1.4,1.13A7.76,7.76,0,0,0,32,23.35a20.1,20.1,0,0,0-1.41,4.2,17.64,17.64,0,0,0-.19-2.85c2.72-4.8,1-7.89-.83-13.07C29,10,27.82,7.21,27.93,5.26"/><path class="cls-4" d="M16.52,29.9a6.21,6.21,0,0,0,.26-1.82c0-.06-.1-.06-.11,0-.11.6-.1,1.22-.2,1.82,0,0,0,0,0,0"/></svg>