<svg id="Layer_1" data-name="Layer 1" xmlns="http://www.w3.org/2000/svg" viewBox="0 0 61 75"><defs><style>.cls-1{fill:#4a6241;}.cls-2{fill:#3a4332;}.cls-3{fill:#1b1515;}.cls-4{fill:#6e6c42;}.cls-5{fill:#46402d;}</style></defs><title>Artboard 1</title><path class="cls-1" d="M31.75,42.19a9.84,9.84,0,0,0-3.16-2.26,10.38,10.38,0,0,0-.5-2.38,25.5,25.5,0,0,0-.67-2.83c1.05-1.82,2-3.61,3.84-6.26a7,7,0,0,1,.1.75,44.56,44.56,0,0,1-.46,6c-1.9.13-2.49,3.4-1,3.93a1.37,1.37,0,0,0,1-.18,1.85,1.85,0,0,0,.78-.84,2.55,2.55,0,0,0,.3-1.63c-.06-.83-.32-1-.6-1.19a23,23,0,0,0,.27-7.42c3.51-5,4-6.15,4.87-7.08.11-.12.1-.23,0-.32a.23.23,0,0,0-.32,0c-.57.5-5.86,8.09-6.28,8.71A6.09,6.09,0,0,0,28.64,29a6.81,6.81,0,0,0-2,.36c-.67-1.84-4.29-.87-4.67,1.14s4.8,1.22,4.76-.63a5.9,5.9,0,0,1,2.93-.34c-.48.72-1.12,1.77-1.69,2.78-1-.43-8.71,4.25-9.61,4.78-.57-.75-2.25-.74-3.48.7a3.12,3.12,0,0,0-.28.38,2.05,2.05,0,0,0-.3.77,1.25,1.25,0,0,0,.51,1.13c1.37,1,3.91-1,3.83-2a.85.85,0,0,0,0-.48c2.14-1.27,5.31-3,5.67-3.14-.18.22-1.66,2-1.87,2.32-1.46.28-2.49,2.26-1.88,2.87.87,1.57,4-2,2.46-2.81.48-.62.82-1,1.18-1.49a4.11,4.11,0,0,1,3.29-2.16l-1.77,3.3c-.26.48-.51,1-.75,1.47a9.19,9.19,0,0,1-.74,1.67,18,18,0,0,0-3,2,4.79,4.79,0,0,0-.86-.09,13.42,13.42,0,0,0-4.24.52c-.06-.45-.62-.74-1.07-.83a1.83,1.83,0,0,0-.75,0c-.71.08-1.8.48-1.85,1.23-.12,1.83,3.21,1.41,3.66.16a14.21,14.21,0,0,1,4.38-.34,19.41,19.41,0,0,1-1.81,1.62c-1,.84-.71.7-4.68,4.5-1.35-1.19-4.11,2.12-2.4,2.73,1,.37,2.63-1.11,2.59-1.89a1.26,1.26,0,0,0,0-.45c.7-.67,4.24-4.1,5-4.71a21,21,0,0,1-1.9,3.95c-1.54-.34-3.18,2.25-1.7,2.78,1.08.38,2-.46,2.31-1.48a1,1,0,0,0-.21-1.11,18,18,0,0,0,1.56-3.11c.14-.33.27-.64.39-1a4.24,4.24,0,0,1,1.52-1.7,21.89,21.89,0,0,1,2.66-1.85,70.75,70.75,0,0,0-2.74,8.69c-1.89,0-2.06,4.36.28,2.68a1.82,1.82,0,0,0,.52-.75c.21-.58.16-1.5-.38-1.81l.08-.43V49A41.77,41.77,0,0,1,23,44.34a4.48,4.48,0,0,1,.49,3.15,1.65,1.65,0,0,0-1.23,1.75c.07,1.5,1.38,1.54,2,.69.48-.63.78-2.32-.36-2.46a4.6,4.6,0,0,0-.42-3,3.22,3.22,0,0,0-.28-.62l0,0a38.77,38.77,0,0,1,3.93-8.52,45.9,45.9,0,0,1,1.3,8.15,10,10,0,0,0-2.35,2.29,1.32,1.32,0,0,0-1.08.38c-1.35,1.12.29,3.08,1.5.69a1,1,0,0,0,.12-.39s-.05-.32-.05-.32a8.5,8.5,0,0,1,1.84-1.85c0,1.3,0,1.15-.17,3.38-1.79.66-1.61,4.69.31,3.71,1.17-.6,2.06-3.13.36-3.72,0,0,.11-1.5.13-2.59,0-.71,0-1.4,0-2.1a15.54,15.54,0,0,0-.29-2.24,7.87,7.87,0,0,1,2.65,1.83c-.59.64-.68,2.44.69,2.86a1.4,1.4,0,0,0,1.73-.85,1.6,1.6,0,0,0-.33-1.87,2.64,2.64,0,0,0-.43-.37,1.12,1.12,0,0,0-1.29-.07m-6.62,4.49h0C25.06,46.73,25,46.74,25.14,46.68Z"/><path class="cls-2" d="M24.31,2.64a2.38,2.38,0,0,1,1,.27,45.61,45.61,0,0,1,11.91,8.86c3.59-.08,4.59-.19,5.4-.13a40.32,40.32,0,0,1-8.33-7.68c-.38-.44-.72-.91-1.06-1.36-.2-.25-.39-.5-.58-.75l-.27-.35a2.43,2.43,0,0,1-.3-.41.78.78,0,0,1,0-.15.51.51,0,0,1,.17-.47c.33-.27.73,0,1,.16l0,0h0c2.79,1.35,10,7.72,11.53,11l.07.1c1.3,0,4.59.22,5.26.29-5.57-3.91-3.74-3.29-7.22-6.63-.66-.65-1.31-1.28-1.94-1.94-.28-.3-.62-.56-.9-.86a2,2,0,0,1-.39-.52v0a.58.58,0,0,1,.26-.78.8.8,0,0,1,.74.13c1.67,1,1,.05,4.08,2.78l0,0a47.36,47.36,0,0,1,3.86,3.39c.39.36.8.72,1.2,1.07s.6.53.87.81.56.78.88,1.14c.7.8.51.39,1.09,1.39a.19.19,0,0,1,0,.07s.16.24.17.26c1.38.16.94,0,2.39.21-1.6-1-5.79-5.33-7.66-7.09l0,0,0,0a15.89,15.89,0,0,1-1.35-1.2.9.9,0,0,1-.34-.94.59.59,0,0,1,.49-.39,1.3,1.3,0,0,1,.48,0,4.21,4.21,0,0,1,.73.34q.31.15.58.32a11.44,11.44,0,0,1,1.27,1.05c.43.39,1,.64,1.42,1l.6.5c.22.2.46.37.69.57s.51.47.76.72.35.41.53.6A13.92,13.92,0,0,1,54.77,9.4l0,0,0,0c1.6,1.41.78.69,2,2.28a9.17,9.17,0,0,1,.64,1.11,9.61,9.61,0,0,1,2.45.26c.62.2.39,1.25-.46.94a6.44,6.44,0,0,0-1.52-.14h0c-1.85,3.38-9,9.18-9.64,7.72-.37-.78,1.14-1.41,4.15-4.23,1.79-1.74,2.63-2.95,3.82-3.66-.77-.11-1.65-.25-2.32-.28-.42,1.15-8.71,4.53-9.9,4.9l0,0c-.91.31-5.3,1.25-5.7.38-.22-.47.22-.78.67-1,1.06-.53,9.81-4,12.14-4.56-.24,0-4.88-.29-5.15-.28h-.11s0,0,0,0h-.19a14.67,14.67,0,0,1-1.89,1.62c-.42.33-5,2.14-5.52,2.33-2.26.84-2.83,1.57-5.59,1.92-.68.07-1.37.13-1.35-.56s3.68-2,4.91-2.62c3.8-1.79,4.48-2.14,6-2.76-.08,0-4.13,0-4.24,0-.64,1.3-11.35,6.84-11.95,5.56-.26-.56.77-1.07,1.32-1.35l4.3-2.34c1.27-.81,2.58-1.54,2.67-1.6-5.47.8-7.19,3.66-17.14,2.08-.52-.11-.94-.11-.93-.69,0-.93,4.25-2.16,5.15-2.4a36.06,36.06,0,0,1,4.88-.62c2.41-.2,1.92.18,4.13.3A11.3,11.3,0,0,1,31.8,12c.35.05.9,0,1.12.23,0,0,0,0,0,0,.23,0,1.48-.22,1.48-.22A19.07,19.07,0,0,1,28,7.53c-.83-.73-3.64-3.07-4.12-4.09a.54.54,0,0,1,.41-.81"/><path class="cls-3" d="M7.29,60.81,7.13,61Z"/><path class="cls-3" d="M7.12,60.74,7,60.91a.11.11,0,0,0,.14.14L7.35,61c.3-.14-.09-.54-.24-.23"/><path class="cls-4" d="M49.8,15.2a8,8,0,0,0-.93-.47.59.59,0,0,0-.09-.13A28.14,28.14,0,0,0,42.85,10a21.41,21.41,0,0,0-6-2.76c-3.69-1-8-.84-11.08,1.61a.06.06,0,0,0,0,.09.2.2,0,0,0,0,.15c2,3,6,4.33,9.32,4.91a54.44,54.44,0,0,0,6.78.58,36.42,36.42,0,0,1,5.51.39l.59.4a.63.63,0,0,0,.69,0l.83.34c.29.11.57-.32.28-.49M26.43,9.08l0,0,.36.1Z"/><path class="cls-4" d="M9.5,63.81a6,6,0,0,1,1.06.28,2.64,2.64,0,0,1,1.05,1.53.46.46,0,0,0,.83,0c.53-1.26,1.06-2.9-.1-4a2.72,2.72,0,0,0-1.59-.69c-.73-.08-2,.37-2.67.09l-.38-.56a.31.31,0,0,0-.55.15,1.33,1.33,0,0,0,0,.17,9.09,9.09,0,0,1-1.88.43,13.8,13.8,0,0,0-2.43.19A6.11,6.11,0,0,0-.25,63.65c-.25.29.21.64.47.36,1.5-1.57,6.32.31,7.62-1.47a6.46,6.46,0,0,0,.43.49,3,3,0,0,0,1.23.78"/><path class="cls-4" d="M10.82,70.9a4.25,4.25,0,0,0,0-2.27c-.45-1.32-2.17-3.06-3.63-3A.24.24,0,0,0,7.1,66h0a3,3,0,0,0-.8,3.41c.71,1.91,2.27,3,3.2,4.74.19.35.84.37.86-.12a17.58,17.58,0,0,1,.45-3.17"/><path class="cls-4" d="M3.93,56.53a3,3,0,0,1,2.31-1.88,6,6,0,0,0,1.82-.5,4.46,4.46,0,0,0,.64-.41c.13,2.35,1.83,4.83,2.43,6.93a.49.49,0,0,0,.89,0c.9-3.1,1-7.3-2.13-9.09,0,0,0-.08,0-.12.08-.31-.41-.5-.58-.24l0,.08h0a.2.2,0,0,0-.32-.17c-1.34.94-3.07.83-4.41,1.8A3.7,3.7,0,0,0,3,56.41a.47.47,0,0,0,.9.11"/><path class="cls-4" d="M10.75,46a10.52,10.52,0,0,0,1.36-.36c-.41,2.72,1.36,5.89,3,7.93a.51.51,0,0,0,.87-.11,7.84,7.84,0,0,0,.68-4.78c-.37-2-1.92-3.51-2.09-5.47l.2-.28a.4.4,0,0,0-.55-.56l-.19.14a6.5,6.5,0,0,0-5.56.08c-2.12,1.18-3.21,3.57-4.91,5.21a.45.45,0,0,0,.54.71A18.71,18.71,0,0,1,10.75,46"/><path class="cls-4" d="M45.2,17.41l-.84.47a20.78,20.78,0,0,1-3.35.45,21.79,21.79,0,0,1-4.9-1.22,20,20,0,0,0-7.2-1,17.29,17.29,0,0,0-12.87,7,.4.4,0,0,0,.37.63,52,52,0,0,1,7.1.66A24.09,24.09,0,0,0,30,24.07a39.77,39.77,0,0,0,11.45-4.21,27.9,27.9,0,0,0-9.62,18,.13.13,0,0,0,0,.12.13.13,0,0,0,.22.1C38.61,33,44,26,45.72,17.8a.38.38,0,0,0-.52-.39"/><path class="cls-4" d="M30.21,29.11c.43-.14.23-.82-.21-.76a5.25,5.25,0,0,0-.58.13c-2.3-1.14-5.61-1.85-8.07-1-3.07,1-5.19,3.7-8.12,5-.31.14-.19.7.17.6,2.86-.74,5.86.11,8.79-.63a38,38,0,0,0,6.08-2.51c-1.34.67-2.17,2.41-2.69,3.72a11.23,11.23,0,0,0-.63,5.84.48.48,0,0,0,1,0c.17-2.4,2.84-4.08,3.86-6.17a5,5,0,0,0,.33-4.11l.12,0m-1.48.69a.16.16,0,0,0-.17,0l.42-.18Z"/><path class="cls-4" d="M16.87,42.7c.11,2.23,1.48,4.18,1.17,6.46a.39.39,0,0,0,.74.19c1.51-2.89,5.33-10.16.83-12.28a.38.38,0,0,0-.52.46,7.24,7.24,0,0,0-2.22,5.16"/><path class="cls-5" d="M46.38,17.13C44,18.27,43,20.54,41.92,22.85a53.39,53.39,0,0,1-6.13,10.26,0,0,0,0,0,.06,0,42.63,42.63,0,0,0,5-7.8c1.46-2.89,2.42-6.63,5.53-8.18,0,0,0-.05,0,0"/><path class="cls-5" d="M46.43,17a24.63,24.63,0,0,1-10,1.94c-2.89-.11-5.71-.39-8.54.36-.06,0-.05.11,0,.1,3.51-.77,7-.07,10.55,0a13.49,13.49,0,0,0,8-2.34s0-.07,0-.06"/><path class="cls-5" d="M31.07,27.83c-2.82.94-3.2,4.66-4.21,7,0,.1.1.15.15.06,1.4-2.46,1.32-5.5,4.1-7a0,0,0,0,0,0-.09"/><path class="cls-5" d="M31,27.67c-.82.34-1.5.87-2.29,1.24-1.46.67-2.53.23-4,.13a11.39,11.39,0,0,0-5.46,1.07.05.05,0,0,0,0,.1,13.23,13.23,0,0,1,3.87-.9c1.28-.08,2.42.22,3.67.25,1.65,0,2.77-1.2,4.19-1.85a0,0,0,0,0,0-.06"/><path class="cls-5" d="M19.92,36.87c-.89.63-.84,1.51-.74,2.52a19.47,19.47,0,0,1-.08,5.82c0,.08.11.11.13,0A10.73,10.73,0,0,0,19.62,42c0-1.53-.87-3.92.36-5.1a0,0,0,0,0-.05-.07"/><path class="cls-5" d="M15.15,40.92A5.86,5.86,0,0,0,13.22,45a4.7,4.7,0,0,0,.46,1.87,5.79,5.79,0,0,1,.39,4.59.09.09,0,0,0,.16.07A4.92,4.92,0,0,0,14.51,48a17.59,17.59,0,0,1-.91-2.47c-.24-1.67.73-3.27,1.58-4.6,0,0,0,0,0,0"/><path class="cls-5" d="M14.67,41.9a6.27,6.27,0,0,1-4.12,1.83,11.31,11.31,0,0,0-3.33,1.18.08.08,0,0,0,.07.16c.69-.27,1.37-.56,2.07-.79s1.71-.34,2.56-.56a5.6,5.6,0,0,0,2.79-1.79s0-.05,0,0"/><path class="cls-5" d="M9.53,50.38a2.88,2.88,0,0,0,.09,3.07,34.9,34.9,0,0,1,2,4.36.1.1,0,0,0,.19-.05,10.57,10.57,0,0,0-1.18-3.12c-.74-1.33-1.75-2.62-1-4.22a0,0,0,0,0-.08,0"/><path class="cls-5" d="M9.11,51c-.19,1.37-1.7,1.49-2.7,1.94a7.73,7.73,0,0,0-1.84,1.15.07.07,0,0,0,.08.11A27.37,27.37,0,0,1,7.9,52.58,1.92,1.92,0,0,0,9.15,51a0,0,0,0,0,0,0"/><path class="cls-5" d="M7.29,59.49c-.15.93-.22,2.07.68,2.65,1.09.71,6.27.05,4.71,2.85,0,0,0,.09.08,0a1.44,1.44,0,0,0-.49-2.1c-1.92-1.29-5.12.27-4.9-3.43a0,0,0,0,0-.08,0"/><path class="cls-5" d="M7.26,59.17c0,.91,0,1.89-.91,2.44a4.46,4.46,0,0,1-2.26.33,6,6,0,0,0-3.14.89c-.12.08,0,.25.12.21a10.68,10.68,0,0,1,3.39-.66,4.3,4.3,0,0,0,1.78-.3c1.17-.56,1.16-1.77,1.06-2.92,0,0,0,0,0,0"/><path class="cls-5" d="M7.28,64.38a26.59,26.59,0,0,0,1.85,6.8c0,.08.14,0,.12,0C8.53,68.89,8,66.62,7.32,64.36c0,0,0,0,0,0"/><path class="cls-5" d="M31,9.22a70.17,70.17,0,0,1,10.07,2.35,65.89,65.89,0,0,1,8.81,4c.19.1.36-.21.19-.32A39,39,0,0,0,31,9.14a0,0,0,0,0,0,.07"/><path class="cls-5" d="M7.57,69.14a.38.38,0,0,1-.24-.32A46.43,46.43,0,0,1,8,54.22a27.55,27.55,0,0,1,2.66-7.17,37.87,37.87,0,0,1,6.93-8.57c7.9-7.68,17.19-13.87,26.17-19.86a35.63,35.63,0,0,1,5-3c3.52-1.59,7.37-2,11.1-2.38a.38.38,0,1,1,.08.76c-3.67.38-7.46.78-10.86,2.32a35.11,35.11,0,0,0-4.91,2.9C35.22,25.23,26,31.4,18.11,39a37.16,37.16,0,0,0-6.79,8.39,26.78,26.78,0,0,0-2.58,7A45.69,45.69,0,0,0,8.1,68.75a.38.38,0,0,1-.53.39"/><path class="cls-5" d="M2.77,52.6l0,0a0,0,0,0,0,0,0l0,0a0,0,0,0,0,0,0"/></svg>