<svg id="Layer_1" data-name="Layer 1" xmlns="http://www.w3.org/2000/svg" viewBox="0 0 154 24"><defs><style>.cls-1{fill:#3a4332;fill-rule:evenodd;}</style></defs><title>top-graphic</title><path class="cls-1" d="M80.62,16.57c.37-.14.91-.17,1.14-.51a4.71,4.71,0,0,0,.42-1.35,25.6,25.6,0,0,0-.72-6.18c-.19-.94-.33-2-.55-2.93.3.24.11.37.53.44a3.91,3.91,0,0,0-.5-1.54c-.12-.24-.22-.43-.32-.67l-.33-.62s0,0,0,0a2.17,2.17,0,0,0-.24.66c-.09.37-.16.4,0,.66A4.81,4.81,0,0,1,80.3,6c.29,1.49,1.59,8,1.46,9.06a1.74,1.74,0,0,1-1.38.31c-.45-.14-.5-.7-.84-.94l-.11.29c-.18.89-.08.83.35,1.55s.63,1.05,0,1.53a11.57,11.57,0,0,1-1.4,1c-.3.17-.5.23-.77.39-3.52,2.05-5.38-.67-3-4,.38.11.69.42,1.12.45a2.83,2.83,0,0,0-.62-1.88A8.57,8.57,0,0,1,76.46,13c.46-.17.94-.43,1.45-.59a15.75,15.75,0,0,0,1.51-.54c.38-.17.46,0,.58-.41a1.79,1.79,0,0,0,.15-.79,14,14,0,0,0-3.31-.78,19,19,0,0,0-3.73-.21,2.52,2.52,0,0,0-1.59.48,1.59,1.59,0,0,0-.25,1.56c.16.33,1.38.9,2.23,1.78-.21.21-.48.32-.73.53l-2.1,1.64c-.84.57-2.36,2.22-3.3,2.95l-.68.55a8.23,8.23,0,0,1-.71.52,5.12,5.12,0,0,1-2.63,1.13c-1.58.08-1.83-1.69-1.28-3.12a8.62,8.62,0,0,1,.36-.92c.19-.36.17-.47.6-.62s1.2-.55,1.75-.75a2.58,2.58,0,0,0,1.45-1,5,5,0,0,0,.41-2.13c-.08-1.69-1.11-6.11-1.09-6.26.28,0,.2.37.57.45A4,4,0,0,0,65.57,5a5,5,0,0,0-.72-1.26c-.41,1.67-.23.73,0,1.59.14.61.19,1.21.31,1.79.25,1.26,1.07,4.91,1.13,6.19,0,.35-.15.38-.41.54A25.09,25.09,0,0,1,63,15.15a8,8,0,0,0-2.44,1.71,23.81,23.81,0,0,1-2.26,1.88c-1.1.83-2.22.55-2.12-1.11a5.31,5.31,0,0,1,1.36-2.78c1.36,0,2.58-.79,3.62-1.24,2.16-.92,1.61-.81,3.91-.78a3.12,3.12,0,0,0,.49-1.06,38.33,38.33,0,0,1-4.94-.59c-.75-.14-2.89-.84-3.42-.13a2.86,2.86,0,0,0-.31,1,5.12,5.12,0,0,1,1.26,0c.15,0,.48.07.61.06.41,0,.09-.12.46-.15a12.59,12.59,0,0,1,2.29.44c-.78.31-1.59.7-2.46,1a3.43,3.43,0,0,1-1.52.22c-.86-.1-.55-.41-.63-.85,0-.21.08,0-.06-.11S49.72,14,48.62,14.16c-.49.08-1,.1-1.45.2-1.43.28-2.9.32-4.32.51-2.15.27-7.06.63-9,.65-2.17,0-4.28.06-6.48.06-1.07,0-2.1-.07-3.15-.07s-2.16,0-3.11-.14-2-.1-3-.23c-1.66-.22-6.71-.69-7.6-2.07l-.21.21c-1.09-.51-2.78.46-3.39.91-1.11.83-2.49,2.62-3.74,3-.74.25-1.28,0-1.33-.76-.1-1.49,1-2.46,1.31-3.11.4.06.49.06.69-.19A2.41,2.41,0,0,0,4,12.64a4.26,4.26,0,0,0,.22-1.45c-.11.1-.13.1-.19.38a1,1,0,0,1-.1.36c-.43.85-1.54.29-1-2.46a6.49,6.49,0,0,1,.42-1.38,7.94,7.94,0,0,0,.4-1.29,11.3,11.3,0,0,0-.62,1.41c-.49,1.31-1.3,3.88-.31,5L2,14.7C.78,17,2.07,19.49,4.11,17.84c1.28-1,2.46-2.67,4-3.28.47-.19,1.6-.42,2,0,.17.4-.08.75.42,1.32a2.69,2.69,0,0,0,1,.78c.22-.31.11-1,.11-1.42.63.1,1.35.38,2.53.57,1.35.21,2.7.44,4.07.56.45,0,1,0,1.44.09,5.66.51,20.8.09,26.26-.91.85-.16,1.78-.27,2.68-.41,1.3-.21,7-1.41,7.74-1.36.12.21.1.41.27.66s.34.26.5.42a5.32,5.32,0,0,0-1.23,2.92,4,4,0,0,0,.38,1.69c1,1.76,2.92-.15,3.73-1a11.41,11.41,0,0,1,2.21-1.87,8.18,8.18,0,0,0-.76,2.57c-.21,2.49,1.3,3.55,3.38,2.44a11.17,11.17,0,0,0,2-1.3c.62-.51,1.18-1,1.77-1.5l1.7-1.57c.17-.15.23-.26.41-.4l.91-.72A14.5,14.5,0,0,1,74,14.4c.15.17.23.39.39.54a6.86,6.86,0,0,1-.47.75c-1.81,3.26-.5,6.79,3.35,4.76l1.51-.89c2.22-1.33,1.45-2.85,1.75-3l0,0m-8.79-5.4c.23-.37,1.07-.35,1.46-.37a11.42,11.42,0,0,1,1.77.06,14.52,14.52,0,0,1,3.15.48,10.14,10.14,0,0,1-1.05.42c-.35.16-.7.28-1,.43-.6.27-1.55.79-2,.94A8.41,8.41,0,0,0,71.83,11.17Z"/><path class="cls-1" d="M152,14.13a1.17,1.17,0,0,1-1.51-.29,1,1,0,0,1-.16-.41l-.07-.19c-.4.29-.24,1.12-.84,1.45a.67.67,0,0,1-.83-.11c-.29-.33-.14-.45-.11-.83-.24,0-.39.27-.5.5-.55,1.11-1.78,1.19-2,.71-.08-.18.19-.48,0-.62s-7.06,1.21-8.16,1.44l-2.86.42c-.94.16-2,.15-2.9.32-1.84.33-7.3.67-9.1.71-2.13.05-4.24,0-6.37.09s-7.18-.12-9.38-.37c-.95-.11-1.91-.24-2.87-.38a15.56,15.56,0,0,1-3.95-1,2,2,0,0,1-.93-.69l-.16.2c-3.56-.83-5.55,4.26-7.7,4.07-1.21-.1-.69-2.1-.24-2.69a1.42,1.42,0,0,0,1.57.14c.73-.44.74-2.1.45-2.89a16.79,16.79,0,0,1-.86-1.92c.26.15.15.2.41.2,0-.5-.66-1.27-1-1.73a.41.41,0,0,0-.07-.1.43.43,0,0,0-.14-.12,2,2,0,0,0-.23.8c-.06.36.11.35.22.74.21.74,1.42,3.41,1.41,3.56-.09.75-2.23.78-2.5-1.58a8.42,8.42,0,0,0-.89-3.13c-.06.05,0,0-.08.09a.41.41,0,0,0-.06.16c-.31,1.07,0,1.18.26,2.52.51,2.87-2.31,3.81-2.7,1.31-.19-1.21.38-2,0-3.22-1.18.21-1.34,3.77-1.7,4.52-.73,1.57-2-.14-1.81-2.33,0-.21.07-.52-.08-.68a1,1,0,0,0-.17.61c-.35,2.61,1.44,5.43,2.36,3.16.36-.88.28-2.25.7-3.26a2.31,2.31,0,0,1,.14-.27l.17-.21,0,0c-.09,1.27-.61,3.34.82,4.14a1.54,1.54,0,0,0,1.93-.36,3,3,0,0,0,.62-2.08,9.17,9.17,0,0,1,.36,1c.16.35.47.65.55.83-1,1.5-.56,4.48,1.37,3.74a5.21,5.21,0,0,0,1.29-.93,14.07,14.07,0,0,0,1.1-1.07,7.51,7.51,0,0,1,2.5-1.82,2.48,2.48,0,0,1,1.84.05,2.09,2.09,0,0,0,1.18,2l.14.07c.37.08.18-1.14.19-1.39.42.08.81.22,1.18.32s.89.18,1.29.24c1.88.26,3.62.52,5.52.63.94.06,2,.06,3,.14,2.38.2,5.11,0,7.55,0,.46,0,1.1,0,1.52,0,1-.09,2-.07,3-.14,3.21-.24,8.25-.38,11.27-1,1.65-.34,3.52-.52,5.23-.89.68-.15,4.87-1,5.23-.92l.15.43c.33.82,1.54.52,1.94-.08.14-.21.27-.62.43-.75a3.05,3.05,0,0,0,.33.7c.29.29,1.18.41,1.51-.72l.07-.21,0-.07c.07-.1,0,0,.09-.09.29.38.15.43.63.67,1.35.66,1.73-.57,1.61-1.86a5,5,0,0,0-.71-1.84,8.27,8.27,0,0,1-.87-1.74c.25.09.11.15.47.25a7.67,7.67,0,0,0-1.27-2c-.2.17-.23.57-.27.85s0,.21.1.41a12,12,0,0,1,.83,1.92c.31.71.76,1.4,1.11,2.11a1.44,1.44,0,0,1,.29.8"/><path class="cls-1" d="M84.74,16c.23-.11.23-.32.28-.84a21,21,0,0,0-.13-3.32c.69-.51,1.21-.72,1.75-1.14.26-.21.54-.48.77-.69A3.21,3.21,0,0,0,88,9.14c.29.05.31.14.62.17L88.77,9a.94.94,0,0,0,0-.39C88.7,8.15,87.38,7,87.47,8c0,.48.14,0,0,.38s0,.55.37.7a6,6,0,0,1-1.57,1.48l-1.44,1c-.08-1.16-.72-4.69-1-5.94.1.06.34.42.47.53.25-.36-.86-2.55-1.05-2.9-.21.17-.17.3-.27.65-.17.57,0,.35.08.75l1.24,8c.06.54.09,1.08.15,1.63l.09,1.3a.61.61,0,0,0,0,.22c.08.21,0,.06.11.15m2.94-7.44c0-.22.07-.24.29-.28a.55.55,0,0,1,.12.46Zm.62-.11a1.09,1.09,0,0,1,.38.5,1.33,1.33,0,0,1-.46-.18C88.22,8.51,88.22,8.54,88.3,8.41Z"/><path class="cls-1" d="M94.55,15.93c.12-.06.1.06.22-.45a8,8,0,0,0,0-2.14c-.31-2.17-.52-3-1-5a22,22,0,0,1-.49-2.48c.26.16.2.38.52.48.17-.29-.32-1.15-.49-1.45a7.21,7.21,0,0,0-.73-1.36,1.6,1.6,0,0,0-.24.69c-.12.45,0,.38.12.7l1.57,7.78c.14.66.4,3.11.49,3.24"/><path class="cls-1" d="M67.6,5.1a14.63,14.63,0,0,1,.27,1.6c.17,1,.47,2.1.62,3.12a64.62,64.62,0,0,1,.81,6.67c1-.58-.29-7.42-.68-9.19A11.61,11.61,0,0,1,68.38,6c.16.09.12.09.23.24s.07.15.24.26l-1-2.79c-.11.09-.12.1-.19.32-.28.88-.16.68,0,1.06"/><path class="cls-1" d="M71.07,5.23a2.87,2.87,0,0,0-.32-1.77c-.21-.33-.6-1.11-1.06-1.06l-.06.36a3.26,3.26,0,0,1,1,1,1.84,1.84,0,0,1,.34,1.55c-.26.19-.94.45-1.42.78a.44.44,0,0,0-.24.5c.66-.27,1.43-.87,2.17-1.14s1.61-.64,2.35-1c1-.47,2.5-1.05,3.59-1.44.43-.16.94-.24,1.32-.37l.13-.39a31.63,31.63,0,0,0-4,1.37Z"/><path class="cls-1" d="M53.65,8.53a2.23,2.23,0,0,1-.59-.38c.11-.44.76-.66,1.14-.85s.86-.42,1.28-.65L59.57,4.9c.86-.37,2.66-1.09,3.54-1.36.35-.11.43-.08.46-.48a30.58,30.58,0,0,0-3.19,1.13c-2,.75-4.19,1.81-6.1,2.72-.52.25-1.13.48-1.27,1-.21.73.74,1.45.65.67"/><path class="cls-1" d="M70.22,9.82l.06-.34c-.24-.12-.45-.19-.54-.45a1.86,1.86,0,0,1,.53-.31,66.51,66.51,0,0,1,6.81-3c.4-.16.88-.3,1.28-.46.93-.39,1.06-.21,1.09-.76L76.56,5.59c-.47.2-.94.37-1.43.56a39.6,39.6,0,0,0-5.38,2.51.72.72,0,0,0,.39,1.17Z"/><path class="cls-1" d="M89.13,5.63a22.18,22.18,0,0,0-4,2.32.76.76,0,0,0,.51,1.27l.07-.4a1.74,1.74,0,0,1-.58-.41c.3-.56,4.13-2.45,5.12-2.93.34-.16.6-.32.9-.45s.63-.19.69-.66c-.68.11-1.78.94-2.52,1.13.06-1-.34-2.2-1.15-2.46-.22.72.13.32.62,1.06a1.8,1.8,0,0,1,.38,1.53"/><path class="cls-1" d="M5.7,6.54a3.83,3.83,0,0,1,1.69-.18c-.08.14,0,0-.14.14-.49.35-1.36.51-1.49.88A4,4,0,0,0,7.5,7c.33-.2.3-.19.49-.57a6.32,6.32,0,0,0,.33-.73c.16-.48-.17-.39-.62-.39-1.15,0-1.81.07-2,1.25"/><path class="cls-1" d="M96.21,7.27c-.23-.39-.49-1.25-1-1.17l-.1.22c-.08.44.28.35.52.53s.33.68.55.84c0,0,0,0,0,0s0,.06-.05.08l-.17.57.24-.23a2.78,2.78,0,0,1,.26.12c-.38.24-.53.06-.6.69s.53,1.57.67,2.52c0,.08,0,.17,0,.25l.14.28a5.8,5.8,0,0,0-.26-1.6C96.33,10,96,9.17,96,9a1.06,1.06,0,0,1,.4-.24c.18-.06.45,0,.59-.14l0-.34c-.5-.39-.15-.26-.75-.53.22-.56,0-1.3.29-1.66a.5.5,0,0,1,.17.09l.21.14c0-.43.08-.33-.17-.62-.71,0-.47.75-.54,1.63"/><path class="cls-1" d="M81.68,20.39l1.47-.66c.94-.42,1.88-.92,2.88-1.32s1.16-.41,1.18-.89a4.27,4.27,0,0,0-.76.32l-.74.3c-.9.36-1.92.92-2.88,1.33s-1.13.38-1.16.93"/><path class="cls-1" d="M72.57,18.37c.32-.14.4-.14.44-.52-.4.05-3.44,1.41-4.19,1.74-1,.46-1,.36-1.1.87Z"/><path class="cls-1" d="M81,2.55a2.58,2.58,0,0,0-.31.82c.15,0,.05,0,.17-.15A1.54,1.54,0,0,0,81,3c.61,0,.55.2.93-.26l.28.2-.07.18c0,.26-.07.06.05.2.31-.74,1.13-.15,1.44-.81L83.74,2V2l0-.09c0-.12-.38-.34-.77,0-.19.18-.34.38-.53.56-.6-.16-.43-.68-.76-1.09,0,0-.19.07-.1.42s.41.68,0,.79c-.22.06-.25-.05-.53-.07m1.69-.06a.6.6,0,0,1,.78-.27c-.06.09,0,0-.16.13Z"/><path class="cls-1" d="M97.73,20.74c.42-.13.8-.34,1.27-.52l2.57-.94c.93-.38,1-.25,1.05-.74a7.6,7.6,0,0,0-1.34.46l-2.56.94c-1,.4-1,.24-1,.8"/><path class="cls-1" d="M92.05,2.76c-.62.19-.27,0-.77,0l-.22.66c.19-.08.06,0,.18-.11s0-.07.1-.13c.23.1.37.22.67,0s0-.07.24-.17l.2.28c.18-.21.36,0,.94-.3a.71.71,0,0,0,.35-.76c-.09-.39-.61-.21-.77,0a2.81,2.81,0,0,1-.46.54.54.54,0,0,1-.31-.45A1,1,0,0,0,92.12,2L92,1.86c-.09-.11,0,0-.14-.12-.16.65.13.44.14,1m.76,0a.52.52,0,0,1,.73-.31A1.34,1.34,0,0,1,92.81,2.72Z"/><path class="cls-1" d="M76,17.69c0-.4.78-.71.81-1.37,0-.37-1.17-.28-1.08.6.3-.16.15-.38.81-.39-.07.2-.39.38-.53.61a1.33,1.33,0,0,0-.18.9c.35.56,2.07-.31,2.33-1.25-.28.1-.16.08-.49.39s-1.14.83-1.68.51"/><path class="cls-1" d="M66.25,2.88c-.34.28-.32.11-.67,0a1,1,0,0,0-.25.73c.15-.15.13-.19.22-.36.28.1.16.13.59.11l.23-.28a1,1,0,0,1,.22.17c.09.12,0,.05,0,.11l0,.17c.18-.44.21-.07.93-.35A.63.63,0,0,0,68,2.44c-.53-.48-1,.28-1.24.5-.56-.5-.27-.45-.58-.84l0,0L66,2c0,.32-.07.2.07.49a.78.78,0,0,1,.14.43m.81.09a.54.54,0,0,1,.74-.3C67.69,2.9,67.32,3,67.06,3Z"/><path class="cls-1" d="M65.31,18.71a2.86,2.86,0,0,0,.46-1.1l-1.19-.53a2.25,2.25,0,0,0-.39,1c.22.15,1.05.5,1.12.61"/><path class="cls-1" d="M90.61,8.13C90,8,90.39,7.53,90.14,7c-.15.21-.06.61,0,1s.12.61.57.6a1.43,1.43,0,0,0,.23-.47c.27.12.14.28.71.24a1.1,1.1,0,0,0,0-.87c0-.12-.12-.23-.17-.36s-.06-.15-.09-.2l-.13-.2c-.22.32,0,.57.24.91l.07.26v0c-.63.24-.41-.78-.82-1.15-.33.58.43.69-.08,1.39"/><path class="cls-1" d="M86.32,4.92c-.11-.08,0,0-.13-.13-.26-.34-.44-.94-.93-1a.75.75,0,0,0-.13.56,1.87,1.87,0,0,1,.42.15c.29.12.16,0,.33.25s.26.61.5.73c.31-.51-.15-1.17.25-1.71.37,0,.41.35.47.12a.42.42,0,0,0-.37-.55c-.45,0-.4,1.09-.4,1.52"/><path class="cls-1" d="M79,7.73c-.24.22-.42.1-.55-.19a1.9,1.9,0,0,1-.12-.4s0-.15-.06-.18c-.13-.29.06.09,0-.08a.47.47,0,0,0-.07-.11c-.3.49.54,1-.18,1.31-.38,0-.28-.68-.34-1l0-.15,0-.05s-.2,0-.09.4a.76.76,0,0,1,.05.41c0,.93.66.95.83.31l.28.18c.45.23.67-.39.22-1.21l-.18-.38c-.28.43.25.74.31,1.1"/><path class="cls-1" d="M96.74,20.92c.05.25.05.29.18.42.12-.57-.53-1.81-.5-2.37.56-.33.83-.14,1-.33.22-.38-.32-.8-.7-.78a1,1,0,0,0-.21.56c.26-.15.22-.2.46-.11-.06.06,0,0-.11.08l0,0-.22.08c-.19.08-.19.09-.26.27-.19.53.26,1.4.41,2.14"/><path class="cls-1" d="M75.26,8.59c-.18-.47-.47-1.07-1.06-1.09,0,.15-.2.57.29.71s0-.09.27,0,.39.72.64.87c0,0,0-.05,0,0,.06.16,0-.69,0-.85a1,1,0,0,1,.13-.79c.39,0,.17.17.5.21,0-.4-.1-.6-.5-.62-.44.44-.14,1.28-.31,1.57"/><path class="cls-1" d="M62.44,7.36h-.37c-.15-.31-.15-.7-.27-1-.05.06-.13,0-.09.29l.24.89c.29.6.59.1.74-.23.09,0,.75.54.77-.19a1.21,1.21,0,0,0-.09-.42,2,2,0,0,0-.18-.34A1,1,0,0,0,62.92,6c-.07.51.39.6.45,1.14-.81.13-.5-.68-.94-1.1-.23.57.42.69,0,1.34"/><path class="cls-1" d="M147.32,11.47c-.28-.15-.37-.83-1.15-.91l-.07.54c.4.1.63.11.84.35s.75,1.35.49-.36l0-.1a1,1,0,0,1,.09-.74c.23,0,.21.08.45.16,0-.43,0-.54-.42-.58-.51.48-.14,1-.21,1.64"/><path class="cls-1" d="M6.61,10.75c-.15-.1-.13-.11-.24-.31-.29-.5-.46-.77-1-.79l-.05.47a1.3,1.3,0,0,0,.43.18c.24,0,.13,0,.34.21s.38.68.54.75c.21-.4-.06-1.22.15-1.65.3-.1.3,0,.51.21,0-.49,0-.64-.49-.64-.3.45-.18,1-.21,1.57"/><path class="cls-1" d="M54,11.4s0,0,0,0l-.1-.1-.12-.18a3.27,3.27,0,0,0-.21-.31.87.87,0,0,0-.7-.41l0,.5c1,.32.65.32,1.17,1a.41.41,0,0,0,.09.1.75.75,0,0,0,.08-.43c0-.56-.16-1,.15-1.33.19,0,0,0,.2.07l.23.15c0-.44,0-.63-.51-.61A3,3,0,0,0,54,11.4"/><path class="cls-1" d="M71.34,19.74c-.23.15-.41.06-.51.35s.15.87.27,1.36a3.93,3.93,0,0,0,.14.72c.28-.3-.25-1.51-.28-1.88,1-.35.93,0,1-.62-.33-.23-.85-.82-1,.16.22-.08.24-.18.4-.08"/><path class="cls-1" d="M88.52,19.95a1.34,1.34,0,0,0,0-.21c0-.59-.1-1,.22-1.21.25.11.13.14.36.22.1-.4,0-.61-.42-.63-.31.28-.28.87-.28,1.42l-.15-.18c0-.08,0-.07-.08-.15a1.76,1.76,0,0,0-.19-.27c-.14-.18-.26-.37-.55-.39-.39.63.15.54.43.74s.42.7.54.86Z"/><path class="cls-1" d="M59.84,8.67c-.18-.15-.56-1.1-1.18-1.16L58.59,8a4.08,4.08,0,0,0,.43.21c.36.13.16-.06.38.28.34.53.49,1,.58.53v-.5A2.51,2.51,0,0,1,60,7.41c.26,0,.49.11.49.25.3-.63-.85-1.47-.66.75,0,.14.07.08,0,.26"/><path class="cls-1" d="M56.79,4.35a6.23,6.23,0,0,1-.48-.58,1,1,0,0,0-.66-.44c-.3.89.33.19.92,1.17.12.21.1.34.32.47,0-.51-.13-1.4.12-1.75.27-.06.23.09.49.16l0-.38c-.88-.64-.73.56-.75,1.34"/><path class="cls-1" d="M72.73,2.09c0-.08,0-.21,0-.27V1.69l0-.07a.14.14,0,0,0,0,0,.23.23,0,0,1,0,0l-.05.45a1.88,1.88,0,0,0,0,.63c.2,1,1.5.19,1-.6,0-.06-.59-.49-.82-.1m0,.16.63.22c.21.11.1.06.16.16C73.3,2.85,72.65,3.09,72.69,2.24Z"/><path class="cls-1" d="M67.07,17.31c.29-.51-.14-1.26.32-1.69.25.07.21.14.39.2,0-.39-.08-.57-.48-.6a2,2,0,0,0-.22,1.13.6.6,0,0,1,0,.23c-.07.19,0,0-.1.15-.09-.42-.42-.95-.84-1-.35.54.21.54.47.72a3.89,3.89,0,0,1,.49.85"/><path class="cls-1" d="M55.77,8.74l-.1-.32,0-.05c0,.56-.2,1.93.68,1.58a.6.6,0,0,0,.24-.82c-.09-.2-.5-.33-.79-.4m.67.72c-.37.27-.67.31-.69-.3A1.09,1.09,0,0,1,56.43,9.46Z"/><path class="cls-1" d="M146.15,7.27V6.86s0,0,0,0a3.29,3.29,0,0,0-.15,1c0,1,1.07.86.89-.09-.07-.37-.34-.4-.7-.52m-.05.41a1,1,0,0,1,.31.09l.16.07.16.15C146.44,8.34,146,8.22,146.1,7.68Z"/></svg>